<svg xmlns="http://www.w3.org/2000/svg" viewBox="0 0 100 100">
  <g fill="none" stroke="#111b16" stroke-width="5" stroke-linecap="round" stroke-linejoin="round">
    <circle cx="50" cy="42" r="28"/>
    <path d="M50 42c-8-3-13-9-13-16 0-5 4-9 9-8 7 2 8 14 4 24Z"/>
    <path d="M50 42c7-5 15-6 21-2 4 3 5 8 1 12-5 5-15-1-22-10Z"/>
    <path d="M50 42c1 8-2 16-9 19-5 2-10 0-11-5-2-7 9-13 20-14Z"/>
    <circle cx="50" cy="42" r="4" fill="#111b16"/>
    <path d="M50 70v13M37 88h26M42 83h16"/>
  </g>
</svg>
